<svg aria-hidden="true" style="position:absolute;width:0;height:0" xmlns="http://www.w3.org/2000/svg" overflow="hidden"><defs><symbol id="arrow_icon" viewBox="0 0 48 32"><path d="M26.445 29.101a3.198 3.198 0 01-4.886.004l-.004-.005L2.112 6.06A3.2 3.2 0 014.56.799h38.88a3.2 3.2 0 012.441 5.269l.004-.005-19.44 23.04z"/></symbol><symbol id="icon-arrow_menu_icon" viewBox="0 0 107 32"><path fill="#008cef" style="fill: var(--color1, #008cef)" d="M53.333 32l-46.187-32h92.373l-46.187 32z"></path></symbol><symbol id="burger_menu_icon" viewBox="0 0 32 32"><path fill="var(--color1, #487996)" d="M32 9a1 1 0 01-1 1H1a1 1 0 010-2h30a1 1 0 011 1zm0 16a1 1 0 01-1 1H1a1 1 0 010-2h30a1 1 0 011 1zm0-8.008a.992.992 0 01-.992.992H.992a.992.992 0 110-1.984h30.016c.548 0 .992.444.992.992z"/></symbol><symbol id="close_icon" viewBox="0 0 32 32"><path fill="var(--color1, #487996)" d="M17.253 16l6.48-6.48a.889.889 0 00-1.254-1.252l.001-.001-6.48 6.48-6.48-6.49a.89.89 0 00-1.252 1.256l-.001-.001L14.747 16l-6.49 6.48a.89.89 0 101.254 1.255l.001-.001L16 17.254l6.48 6.48a.89.89 0 001.253-1.255l.001.001-6.48-6.48z"/></symbol><symbol id="load_icon" viewBox="0 0 32 32"><path fill="none" stroke="var(--color1, #487996)" stroke-linejoin="round" stroke-linecap="round" stroke-width="1.032" d="M16 .516V4.94m11.06 0l-3.318 3.318M4.94 4.94l3.318 3.318M16 31.484V27.06m11.06 0l-3.318-3.318M4.94 27.06l3.318-3.318M.516 16H4.94m22.12 0h4.424"/></symbol><symbol id="paper_clip_icon" viewBox="0 0 35 32"><path fill="var(--color2, #cdcdcd)" d="M6.301 32c-1.49 0-2.811-.56-3.968-1.678C1.111 29.14.501 27.706.501 26.016s.61-3.123 1.832-4.307L21.501 2.032A6.795 6.795 0 0124.838.169l.046-.009c.461-.104.99-.163 1.532-.163.842 0 1.65.143 2.402.406l-.051-.016c1.312.43 2.523 1.171 3.634 2.224.355.368.683.77.984 1.211.299.442.544.904.733 1.387.368.933.583 2.014.584 3.145v.001c-.045 2.278-.845 4.182-2.4 5.709L17.801 28.968a1.02 1.02 0 01-.732.338h-.001a1.011 1.011 0 01-.753-.274.996.996 0 01-.331-.726v-.001l-.001-.052c0-.274.108-.523.285-.705l14.499-14.904c1.178-1.162 1.778-2.602 1.8-4.323.022-1.72-.544-3.128-1.699-4.224a7.445 7.445 0 00-2.32-1.596l-.048-.019a5.233 5.233 0 00-2.043-.408c-.267 0-.529.02-.786.058l.029-.004c-1 .128-1.888.57-2.666 1.322L3.866 23.128c-.821.795-1.232 1.752-1.232 2.87s.411 2.075 1.232 2.87a3.9 3.9 0 001.235.822c.443.184.91.253 1.398.21.979-.042 1.89-.483 2.734-1.322L24.465 12.9a4.68 4.68 0 00.623-.74l.01-.016c.205-.302.347-.662.399-1.051l.001-.013a1.032 1.032 0 00-.102-.572l.003.006A1.838 1.838 0 0025 9.968l-.001-.001c-.422-.432-.832-.624-1.232-.581-.424.043-.901.312-1.435.806L10.866 21.998a1.123 1.123 0 01-.459.271l-.008.002a1.016 1.016 0 01-.305.045c-.087 0-.172-.011-.253-.03l.007.002a.995.995 0 01-.483-.258.903.903 0 01-.333-.701v-.009c0-.278.099-.526.299-.741l11.467-11.84c.912-.859 1.834-1.333 2.768-1.419 1.066-.085 2.043.302 2.931 1.162.845.797 1.216 1.731 1.117 2.806s-.638 2.086-1.616 3.032L10.766 30.03c-1.246 1.205-2.635 1.85-4.168 1.936a.801.801 0 00-.156.017l.005-.001a.839.839 0 01-.148.016h-.001z"/></symbol><symbol id="pointer_icon" viewBox="0 0 22 32"><path fill="var(--color3, #008cef)" d="M11.034 0c-.609 0-1.103.494-1.103 1.103v26.026l-6.943-6.945a1.105 1.105 0 00-1.562 1.562l8.828 8.828a1.101 1.101 0 001.562 0l8.828-8.828a1.107 1.107 0 00-.781-1.887c-.292 0-.574.117-.781.324l-6.943 6.945V1.102c0-.609-.494-1.103-1.103-1.103z"/></symbol><symbol id="round_call_icon" viewBox="0 0 32 32"><path fill="var(--color3, #008cef)" d="M25.639 20.347l-3.385-.389a2.647 2.647 0 00-2.188.761l-2.453 2.453c-3.802-1.962-6.824-4.984-8.734-8.674l-.053-.112 2.464-2.466a2.654 2.654 0 00.759-2.187l-.386-3.36a2.671 2.671 0 00-2.65-2.359H6.703c-1.506 0-2.759 1.253-2.665 2.759.739 11.392 9.795 20.449 21.119 21.185l.067.003c1.506.091 2.759-1.161 2.759-2.667v-2.309-.012a2.644 2.644 0 00-2.335-2.625l-.012-.001z"/></symbol></defs></svg>